HIERARCHY
ROOT joint_0
{
	OFFSET 0.000000 0.000000 0.000000
	CHANNELS 6 Xposition Yposition Zposition Zrotation Yrotation Xrotation 
	JOINT joint_1
	{
		OFFSET 4.520508 -1.939880 86.268921
		CHANNELS 3 Zrotation Yrotation Xrotation
		JOINT joint_2
		{
			OFFSET -4.459717 -0.438538 78.934082
			CHANNELS 3 Zrotation Yrotation Xrotation
			JOINT joint_3
			{
				OFFSET -5.197754 -0.781128 78.796997
				CHANNELS 3 Zrotation Yrotation Xrotation
				JOINT joint_4
				{
					OFFSET 2.952026 -3.710571 109.812988
					CHANNELS 3 Zrotation Yrotation Xrotation
					JOINT joint_5
					{
						OFFSET 24.716797 -5.488037 87.903931
						CHANNELS 3 Zrotation Yrotation Xrotation
						End Site
						{
							OFFSET 0.000000 0.000000 0.000000
						}
					}
				}
				JOINT joint_6
				{
					OFFSET -3.154419 -25.484680 60.934937
					CHANNELS 3 Zrotation Yrotation Xrotation
					JOINT joint_7
					{
						OFFSET -28.997192 -144.472229 -32.671997
						CHANNELS 3 Zrotation Yrotation Xrotation
						JOINT joint_8
						{
							OFFSET 19.867676 -18.614380 -249.897949
							CHANNELS 3 Zrotation Yrotation Xrotation
							JOINT joint_9
							{
								OFFSET 5.281982 -13.816650 -264.993042
								CHANNELS 3 Zrotation Yrotation Xrotation
								End Site
								{
									OFFSET 0.000000 0.000000 0.000000
								}
							}
						}
					}
				}
				JOINT joint_10
				{
					OFFSET 6.494995 21.336792 62.257935
					CHANNELS 3 Zrotation Yrotation Xrotation
					JOINT joint_11
					{
						OFFSET 31.106567 145.200745 -27.007935
						CHANNELS 3 Zrotation Yrotation Xrotation
						JOINT joint_12
						{
							OFFSET 29.119141 24.684326 -248.460083
							CHANNELS 3 Zrotation Yrotation Xrotation
							JOINT joint_13
							{
								OFFSET 21.220093 31.248413 -262.703979
								CHANNELS 3 Zrotation Yrotation Xrotation
								End Site
								{
									OFFSET 0.000000 0.000000 0.000000
								}
							}
						}
					}
				}
			}
		}
	}
	JOINT joint_14
	{
		OFFSET -15.458496 -88.861694 -109.593018
		CHANNELS 3 Zrotation Yrotation Xrotation
		JOINT joint_15
		{
			OFFSET -6.193359 6.837952 -506.710999
			CHANNELS 3 Zrotation Yrotation Xrotation
			JOINT joint_16
			{
				OFFSET -35.096680 13.289795 -435.677025
				CHANNELS 3 Zrotation Yrotation Xrotation
				JOINT joint_17
				{
					OFFSET 158.491211 -33.916565 -71.771002
					CHANNELS 3 Zrotation Yrotation Xrotation
					End Site
					{
						OFFSET 0.000000 0.000000 0.000000
					}
				}
			}
		}
	}
	JOINT joint_18
	{
		OFFSET 23.116943 86.574158 -110.082031
		CHANNELS 3 Zrotation Yrotation Xrotation
		JOINT joint_19
		{
			OFFSET -6.125854 -0.283569 -506.757019
			CHANNELS 3 Zrotation Yrotation Xrotation
			JOINT joint_20
			{
				OFFSET -63.240234 11.589966 -432.537994
				CHANNELS 3 Zrotation Yrotation Xrotation
				JOINT joint_21
				{
					OFFSET 156.074219 -41.487305 -73.077999
					CHANNELS 3 Zrotation Yrotation Xrotation
					End Site
					{
						OFFSET 0.000000 0.000000 0.000000
					}
				}
			}
		}
	}
}
MOTION
Frames: 15
Frame Time: 0.016667
-397.410400 824.043884 1141.396973 9.471793 -0.818895 0.497776 -0.243818 -0.523821 -0.415020 -0.209617 0.108626 0.083907 -0.220449 -0.093426 -0.053784 -0.054959 0.782470 0.363851 0.000000 0.000000 0.000000 0.116569 0.976568 -0.905111 0.015470 0.703538 0.575312 -0.050395 0.771784 -0.107898 0.000000 0.000000 0.000000 0.538080 1.022340 0.073941 0.127640 0.841636 0.554630 0.296090 1.634372 1.200337 0.000000 0.000000 0.000000 0.012014 0.530369 -2.332485 -0.001631 0.413225 -0.063137 -0.014654 0.210524 0.038432 0.000000 0.000000 0.000000 0.023332 2.006888 1.290558 0.068829 -3.236508 -0.705648 0.066312 1.695361 0.481863 0.000000 0.000000 0.000000 
-397.397461 823.985901 1141.390015 9.472096 -0.819934 0.496177 -0.241471 -0.515421 -0.406427 -0.207981 0.106330 0.082141 -0.218569 -0.090546 -0.052532 -0.056376 0.773952 0.367054 0.000000 0.000000 0.000000 0.107167 0.968938 -0.902433 0.016255 0.694959 0.571229 -0.050318 0.767802 -0.117370 0.000000 0.000000 0.000000 0.537644 1.015457 0.075984 0.126102 0.836879 0.545934 0.297107 1.639116 1.206177 0.000000 0.000000 0.000000 0.011838 0.532979 -2.325920 -0.001871 0.410294 -0.065155 -0.014952 0.212148 0.038644 0.000000 0.000000 0.000000 0.022158 2.006755 1.292585 0.067609 -3.232526 -0.698683 0.065999 1.688466 0.479881 0.000000 0.000000 0.000000 
-397.381012 823.923218 1141.383057 9.469826 -0.821677 0.494679 -0.239172 -0.509035 -0.398884 -0.206243 0.105102 0.081381 -0.216759 -0.089058 -0.052561 -0.057507 0.766668 0.369519 0.000000 0.000000 0.000000 0.101930 0.962391 -0.900684 0.017001 0.688156 0.567538 -0.050993 0.775764 -0.125676 0.000000 0.000000 0.000000 0.540248 1.010164 0.076874 0.124827 0.832648 0.538614 0.298095 1.644372 1.210871 0.000000 0.000000 0.000000 0.012193 0.537100 -2.319813 -0.001641 0.405571 -0.065944 -0.014645 0.214460 0.039278 0.000000 0.000000 0.000000 0.021968 2.006739 1.296194 0.067432 -3.226140 -0.694660 0.066168 1.680515 0.477844 0.000000 0.000000 0.000000 
-397.362396 823.858826 1141.375977 9.464904 -0.823590 0.493271 -0.236380 -0.504347 -0.391537 -0.204006 0.105390 0.080047 -0.214338 -0.088464 -0.051110 -0.058453 0.758457 0.371143 0.000000 0.000000 0.000000 0.098527 0.956662 -0.899906 0.017508 0.682851 0.561808 -0.052141 0.791218 -0.133199 0.000000 0.000000 0.000000 0.543336 1.006194 0.075017 0.123624 0.828972 0.531765 0.299035 1.648953 1.216013 0.000000 0.000000 0.000000 0.013527 0.541990 -2.314058 -0.000468 0.399456 -0.066156 -0.013349 0.216807 0.040368 0.000000 0.000000 0.000000 0.022904 2.006512 1.300172 0.068387 -3.218053 -0.691350 0.067231 1.671637 0.475977 0.000000 0.000000 0.000000 
-397.342285 823.799561 1141.369995 9.460011 -0.825570 0.492255 -0.234850 -0.498914 -0.383478 -0.203030 0.105186 0.079647 -0.213369 -0.088779 -0.051588 -0.059324 0.752072 0.372878 0.000000 0.000000 0.000000 0.098429 0.952244 -0.896756 0.017389 0.681022 0.552074 -0.053083 0.803677 -0.140207 0.000000 0.000000 0.000000 0.549930 1.003217 0.073985 0.122202 0.826343 0.522265 0.299664 1.651409 1.220405 0.000000 0.000000 0.000000 0.014721 0.546418 -2.309154 0.000591 0.394837 -0.066150 -0.012200 0.217871 0.041117 0.000000 0.000000 0.000000 0.023677 2.006618 1.303241 0.069158 -3.210346 -0.687564 0.068193 1.663422 0.474240 0.000000 0.000000 0.000000 
-397.320892 823.747437 1141.365967 9.453821 -0.827135 0.491901 -0.233228 -0.492929 -0.374512 -0.202093 0.103170 0.078113 -0.212207 -0.087397 -0.050120 -0.060030 0.745472 0.373980 0.000000 0.000000 0.000000 0.097731 0.949551 -0.893149 0.016456 0.682074 0.537214 -0.053522 0.809063 -0.145061 0.000000 0.000000 0.000000 0.555008 1.000976 0.074237 0.120386 0.826045 0.507608 0.299494 1.648579 1.222534 0.000000 0.000000 0.000000 0.016430 0.549318 -2.305369 0.002223 0.392674 -0.066247 -0.010590 0.217111 0.041684 0.000000 0.000000 0.000000 0.024984 2.006531 1.304535 0.070406 -3.202981 -0.682562 0.069764 1.656431 0.473114 0.000000 0.000000 0.000000 
-397.297028 823.700623 1141.364014 9.446668 -0.828503 0.491794 -0.232894 -0.488967 -0.363828 -0.202576 0.104597 0.075306 -0.212429 -0.087991 -0.048638 -0.060767 0.740653 0.375556 0.000000 0.000000 0.000000 0.101222 0.947673 -0.887625 0.014828 0.686336 0.517825 -0.053759 0.811795 -0.148550 0.000000 0.000000 0.000000 0.564474 0.999842 0.074599 0.118304 0.826611 0.490170 0.299036 1.643582 1.224282 0.000000 0.000000 0.000000 0.018561 0.551507 -2.302267 0.004305 0.391961 -0.066265 -0.008591 0.215154 0.042171 0.000000 0.000000 0.000000 0.026528 2.006770 1.305127 0.071876 -3.196352 -0.677179 0.071609 1.650783 0.472472 0.000000 0.000000 0.000000 
-397.271057 823.653015 1141.360962 9.440835 -0.829972 0.491932 -0.232591 -0.482604 -0.354298 -0.203090 0.102045 0.072158 -0.212538 -0.085927 -0.046193 -0.061203 0.735848 0.376063 0.000000 0.000000 0.000000 0.099917 0.945843 -0.879249 0.013020 0.690660 0.496000 -0.054028 0.814967 -0.152400 0.000000 0.000000 0.000000 0.572202 0.998252 0.072711 0.116262 0.826312 0.473937 0.298523 1.637959 1.226329 0.000000 0.000000 0.000000 0.020023 0.554079 -2.299764 0.005698 0.391007 -0.065291 -0.007166 0.213737 0.042513 0.000000 0.000000 0.000000 0.027772 2.007981 1.305677 0.073070 -3.191552 -0.672237 0.073216 1.645658 0.471859 0.000000 0.000000 0.000000 
-397.238922 823.604004 1141.354980 9.436236 -0.831362 0.492164 -0.232742 -0.476387 -0.346476 -0.203864 0.099453 0.070695 -0.213147 -0.083807 -0.045769 -0.061848 0.731782 0.377439 0.000000 0.000000 0.000000 0.092116 0.943873 -0.866622 0.011155 0.694666 0.472057 -0.054473 0.820652 -0.157383 0.000000 0.000000 0.000000 0.580315 0.996433 0.070399 0.114304 0.825347 0.459045 0.297966 1.631936 1.228480 0.000000 0.000000 0.000000 0.020968 0.557473 -2.297758 0.006539 0.389112 -0.063240 -0.006160 0.212590 0.042723 0.000000 0.000000 0.000000 0.028284 2.011298 1.306901 0.073596 -3.190858 -0.668490 0.074213 1.641568 0.471237 0.000000 0.000000 0.000000 
-397.203613 823.553345 1141.348999 9.432975 -0.832597 0.492850 -0.234549 -0.470406 -0.340946 -0.206111 0.096872 0.070087 -0.215244 -0.080402 -0.044914 -0.061980 0.727722 0.376981 0.000000 0.000000 0.000000 0.084301 0.941031 -0.850405 0.009014 0.699192 0.445020 -0.054943 0.826756 -0.162507 0.000000 0.000000 0.000000 0.592954 0.994275 0.065941 0.112260 0.822536 0.445049 0.297463 1.625901 1.231394 0.000000 0.000000 0.000000 0.021254 0.560947 -2.296612 0.006707 0.387185 -0.060136 -0.005711 0.212051 0.042812 0.000000 0.000000 0.000000 0.028449 2.015497 1.307958 0.073799 -3.192436 -0.665306 0.074920 1.639011 0.470887 0.000000 0.000000 0.000000 
-397.171173 823.501343 1141.340942 9.429338 -0.833858 0.493071 -0.235091 -0.462232 -0.334422 -0.207253 0.094365 0.068021 -0.216159 -0.078648 -0.044052 -0.062472 0.723962 0.377862 0.000000 0.000000 0.000000 0.073260 0.938855 -0.831153 0.006811 0.704193 0.418447 -0.055355 0.832238 -0.166702 0.000000 0.000000 0.000000 0.602521 0.991712 0.059324 0.110167 0.819272 0.431748 0.297033 1.619250 1.236246 0.000000 0.000000 0.000000 0.021733 0.563375 -2.295084 0.007101 0.387039 -0.056620 -0.005065 0.210824 0.042842 0.000000 0.000000 0.000000 0.028638 2.019127 1.309551 0.074024 -3.192882 -0.661926 0.075639 1.635055 0.470170 0.000000 0.000000 0.000000 
-397.145203 823.443665 1141.333008 9.426159 -0.834631 0.493501 -0.234640 -0.453390 -0.331925 -0.207012 0.092304 0.068821 -0.215875 -0.076182 -0.043267 -0.063366 0.719356 0.379993 0.000000 0.000000 0.000000 0.058698 0.935561 -0.806486 0.004223 0.709108 0.388568 -0.055746 0.837990 -0.168878 0.000000 0.000000 0.000000 0.607984 0.988318 0.047654 0.108084 0.814251 0.421294 0.296936 1.612810 1.245166 0.000000 0.000000 0.000000 0.021827 0.563127 -2.293716 0.007191 0.390690 -0.052574 -0.004788 0.207827 0.042326 0.000000 0.000000 0.000000 0.028928 2.020487 1.310665 0.074301 -3.190795 -0.657612 0.076420 1.631129 0.469490 0.000000 0.000000 0.000000 
-397.121002 823.383850 1141.322998 9.422568 -0.835340 0.493417 -0.233938 -0.443222 -0.328246 -0.206704 0.090774 0.067741 -0.215458 -0.074433 -0.043102 -0.064514 0.714334 0.382935 0.000000 0.000000 0.000000 0.044829 0.932179 -0.777747 0.001582 0.714841 0.359081 -0.056085 0.843022 -0.170768 0.000000 0.000000 0.000000 0.614815 0.984295 0.034768 0.105794 0.808024 0.410972 0.296956 1.605701 1.256674 0.000000 0.000000 0.000000 0.022130 0.561824 -2.291791 0.007523 0.396033 -0.048261 -0.004306 0.204171 0.041761 0.000000 0.000000 0.000000 0.029274 2.021296 1.312379 0.074633 -3.187755 -0.653144 0.077247 1.625770 0.468449 0.000000 0.000000 0.000000 
-397.094818 823.324158 1141.313965 9.418761 -0.834857 0.492780 -0.233136 -0.431851 -0.324006 -0.206339 0.087971 0.066849 -0.214942 -0.071010 -0.042562 -0.066047 0.706884 0.386741 0.000000 0.000000 0.000000 0.034889 0.929027 -0.748553 -0.000684 0.720556 0.335294 -0.056290 0.846207 -0.171657 0.000000 0.000000 0.000000 0.623702 0.978190 0.021912 0.103105 0.799820 0.398094 0.296837 1.598326 1.266726 0.000000 0.000000 0.000000 0.022651 0.559365 -2.289053 0.008089 0.401266 -0.044332 -0.003622 0.200855 0.041361 0.000000 0.000000 0.000000 0.029715 2.020798 1.315004 0.075074 -3.184424 -0.649140 0.078098 1.620594 0.467469 0.000000 0.000000 0.000000 
-397.063568 823.264038 1141.302002 9.414892 -0.834390 0.490897 -0.232300 -0.418971 -0.317032 -0.206218 0.087520 0.063894 -0.214478 -0.070088 -0.040429 -0.068177 0.699734 0.392728 0.000000 0.000000 0.000000 0.031443 0.927715 -0.720107 -0.002423 0.727684 0.319645 -0.056371 0.847385 -0.172454 0.000000 0.000000 0.000000 0.636805 0.970241 0.010271 0.099939 0.790010 0.381284 0.296436 1.590239 1.274081 0.000000 0.000000 0.000000 0.023404 0.557546 -2.284087 0.008884 0.405715 -0.041991 -0.002829 0.197117 0.040920 0.000000 0.000000 0.000000 0.030310 2.020719 1.320086 0.075748 -3.181072 -0.647224 0.078904 1.614175 0.466138 0.000000 0.000000 0.000000 
